<svg id="svg" version="1.1" xmlns="http://www.w3.org/2000/svg" xmlns:xlink="http://www.w3.org/1999/xlink" width="400" height="168.89726672950044" viewBox="0, 0, 400,168.89726672950044"><g id="svgg"><path id="path0" d="M221.058 0.592 C 209.770 2.489,203.072 6.509,190.896 18.699 L 182.922 26.682 181.094 24.797 C 173.968 17.453,165.157 9.989,160.043 6.966 C 144.360 -2.306,121.664 -1.707,106.709 8.375 L 104.276 10.015 99.923 7.841 C 89.111 2.441,83.943 1.886,44.452 1.885 C 16.744 1.885,15.050 1.924,12.343 2.616 C 6.176 4.193,3.137 6.814,0.998 12.401 L 0.189 14.515 0.088 83.240 C -0.022 158.856,-0.164 153.913,2.250 158.694 C 7.751 169.593,25.246 169.326,30.629 158.262 C 32.768 153.866,32.788 153.582,32.794 126.390 L 32.799 101.414 46.466 101.404 C 78.507 101.379,90.857 99.461,102.086 92.762 L 104.618 91.251 105.749 92.631 C 118.467 108.154,124.841 114.692,147.031 134.974 C 152.319 139.807,162.473 149.375,169.597 156.235 C 176.721 163.096,182.721 168.772,182.929 168.849 C 183.138 168.926,190.457 161.873,199.194 153.177 C 207.932 144.481,221.527 131.162,229.406 123.579 L 243.732 109.791 243.921 132.276 C 244.126 156.792,244.062 156.061,246.375 160.038 C 251.793 169.353,267.231 168.828,272.163 159.161 C 274.270 155.031,274.211 156.264,274.359 112.580 L 274.496 72.285 275.467 70.369 C 276.654 68.026,278.107 64.258,278.939 61.362 L 279.560 59.200 288.753 95.670 C 304.581 158.464,303.993 156.520,308.627 161.378 C 315.721 168.815,328.917 168.709,335.834 161.160 C 340.089 156.516,339.345 159.047,356.510 90.908 L 369.651 38.743 369.848 96.563 C 370.061 159.370,369.916 155.215,372.036 159.328 C 377.125 169.205,393.324 169.181,398.112 159.289 C 400.080 155.225,399.991 158.789,399.996 84.017 C 400.001 5.757,400.217 11.753,397.241 7.839 C 393.684 3.161,389.879 2.148,375.208 1.971 C 359.682 1.783,355.898 2.398,352.539 5.658 C 349.214 8.886,349.005 9.567,334.196 65.508 C 327.596 90.445,322.081 110.718,321.941 110.560 C 321.802 110.402,316.324 90.000,309.769 65.221 C 293.575 4.016,294.463 6.645,289.081 3.918 C 283.374 1.026,258.753 0.923,252.329 3.764 L 250.666 4.500 247.888 3.396 C 240.018 0.270,229.513 -0.828,221.058 0.592 M66.804 27.328 C 77.078 28.681,83.159 31.790,86.404 37.351 C 87.339 38.953,87.385 39.313,87.561 46.371 C 87.684 51.264,87.959 54.700,88.386 56.643 L 89.027 59.563 87.626 62.486 C 82.690 72.785,74.256 75.615,47.220 76.042 L 32.799 76.270 32.799 51.518 L 32.799 26.767 47.672 26.767 C 58.676 26.767,63.652 26.913,66.804 27.328 " stroke="none" fill="#000000" fill-rule="evenodd"></path></g></svg>